

Release info:

General
Format                                   : Matroska
Format version                           : Version 4 / Version 2
File size                                : 1.27 GiB
Duration                                 : 1h 42mn
Overall bit rate                         : 1 775 Kbps
Movie name                               : Broken City 2013 CAMRip New English

Video
ID                                       : 1
Format                                   : MPEG-4 Visual
Format profile                           : Advanced Simple@L5
Format settings, BVOP                    : Yes
Format settings, QPel                    : No
Format settings, GMC                     : No warppoints
Format settings, Matrix                  : Default (H.263)
Codec ID                                 : V_MS/VFW/FOURCC / XVID
Codec ID/Hint                            : XviD
Duration                                 : 1h 42mn
Bit rate                                 : 1 612 Kbps
Width                                    : 720 pixels
Height                                   : 340 pixels
Display aspect ratio                     : 2.118
Frame rate mode                          : Constant
Frame rate                               : 29.970 fps
Color space                              : YUV
Chroma subsampling                       : 4:2:0
Bit depth                                : 8 bits
Scan type                                : Progressive
Compression mode                         : Lossy
Bits/(Pixel*Frame)                       : 0.220
Stream size                              : 1.15 GiB (91%)
Title                                    : Broken City 2013 CAMRip New English
Writing library                          : XviD 64
Language                                 : English
Default                                  : Yes
Forced                                   : No

Audio
ID                                       : 2
Format                                   : MPEG Audio
Format version                           : Version 1
Format profile                           : Layer 3
Mode                                     : Joint stereo
Mode extension                           : MS Stereo
Codec ID                                 : A_MPEG/L3
Codec ID/Hint                            : MP3
Duration                                 : 1h 42mn
Bit rate mode                            : Constant
Bit rate                                 : 128 Kbps
Channel(s)                               : 2 channels
Sampling rate                            : 44.1 KHz
Compression mode                         : Lossy
Stream size                              : 93.6 MiB (7%)
Title                                    : Broken City 2013 CAMRip New English
Language                                 : English
Default                                  : Yes
Forced                                   : No




Source:
credit to original movie ripper MATiNE (Thanks)

IMDB Info:

In a city rife with injustice, ex-cop Billy Taggart seeks redemption and revenge after being double-crossed and then framed by its most powerful figure: Mayor Nicholas Hostetler.

Director: Allen Hughes
Writer: Brian Tucker
Stars: Mark Wahlberg, Russell Crowe and Catherine Zeta-Jones

Genres: Crime | Drama | Thriller 
 
http://www.imdb.com/title/tt1235522/

Screen Shot:
 
http://www.shotpix.com/images/21907624416862771133.png 
http://www.shotpix.com/images/95335911194879262320.png 
http://www.shotpix.com/images/01158715449781604422.png 
http://www.shotpix.com/images/86720996627650253289.png